# Blender v2.78 (sub 0) OBJ File: ''
# www.blender.org
o Cube.001
v -0.512014 -0.588857 0.769966
v -0.418967 -0.420527 1.332018
v -0.933182 -0.427130 1.132153
v -1.036825 -0.580376 0.637109
v -0.559015 0.967173 0.875823
v -1.057524 0.918702 0.824020
v -0.900869 0.812420 1.283601
v -0.491379 0.785418 1.505521
v 1.234836 0.705364 1.158607
v 0.927363 0.983882 1.079718
v 0.562911 0.670182 1.691461
v 1.055227 0.315016 1.604134
v -0.825603 0.381095 1.569982
v -1.162682 0.521461 1.395717
v -1.600534 0.553977 -0.522136
v -1.237117 0.882507 -0.539209
v -0.562956 0.817929 -1.303933
v -0.855621 0.563545 -1.253802
v -0.632142 -0.213470 -0.945366
v -0.202552 -0.422834 -0.524406
v -0.573535 -0.476828 -0.658195
v -0.944370 -0.288008 -0.837967
v -0.240782 -0.582205 -0.419108
v -0.357319 -0.636572 0.140250
v -0.975727 -0.616547 0.059181
v -0.743458 -0.581732 -0.359468
v 0.666964 -0.646642 -0.479982
v 0.599329 -0.674644 0.066580
v 0.103117 -0.675235 0.117398
v 0.291699 -0.551002 -0.354820
v 0.502360 -0.660678 0.710810
v 0.362492 -0.504006 1.368712
v -0.035657 -0.477030 1.406627
v 0.012632 -0.636880 0.773603
v 0.461687 1.008356 1.041332
v -0.079104 0.997851 0.808458
v -0.225942 0.789850 1.907640
v 0.053627 0.740398 1.973684
v 0.920470 0.970785 -0.539025
v 0.181904 0.913775 -0.816674
v 0.165013 0.989036 -0.076090
v 0.730407 0.989815 -0.113140
v -0.425272 0.927519 -0.711769
v -1.058187 0.940714 0.187438
v -0.484437 0.981055 0.166364
v 1.466573 -0.172766 0.924461
v 1.386367 0.268200 1.185996
v 1.274174 0.115509 1.559225
v 1.133493 -0.179039 1.490588
v 1.442698 -0.235150 -0.678420
v 1.386013 0.237679 -0.512087
v 1.294088 0.329940 0.346672
v 1.387805 -0.121438 0.113756
v 1.542449 0.534677 -0.529395
v 1.350860 0.854337 -0.416831
v 1.094337 0.884030 0.225535
v 1.169818 0.705974 0.375152
v -0.587788 -0.171894 1.524577
v -0.924664 0.040398 1.467233
v -1.529154 0.089479 1.031226
v -1.452435 -0.252250 0.948349
v 0.613180 -0.209094 1.577096
v 0.785935 0.077402 1.626324
v 0.378983 0.090110 1.543091
v -0.016214 -0.205853 1.682660
v 0.643095 0.328880 1.588093
v 0.052036 0.289530 1.779833
v -1.227531 -0.441226 -0.630444
v -1.640991 -0.042915 -0.546974
v -1.066821 0.119030 -0.955915
v -1.431474 -0.329016 0.665282
v -1.527577 0.100083 0.636664
v -1.529975 0.067290 0.113609
v -1.429537 -0.516330 -0.077947
v -1.315413 0.654570 0.924418
v -1.364149 0.705988 0.222970
v -0.144292 0.554251 -1.539134
v -0.656552 0.135030 -1.224863
v 0.920943 0.487789 -1.350946
v 0.675223 0.086737 -1.318863
v -0.080918 -0.025709 -1.358784
v 0.272132 0.476720 -1.654590
v 0.631618 -0.247835 -1.020743
v 0.587855 -0.505388 -0.849166
v 0.186171 -0.435242 -0.605882
v -0.061609 -0.301583 -1.056259
v 1.015836 -0.479230 -0.900421
v 1.160928 -0.553023 -0.460226
v 1.164313 -0.520126 0.029644
v 1.127772 -0.488988 0.647897
v 0.855220 -0.438563 1.244402
v 1.422659 0.721224 -0.845902
v 0.889360 0.759663 -1.122063
v 0.224164 0.764291 -1.407427
v -0.056086 0.784644 -1.623523
v 1.200178 -0.187414 -1.109916
v 1.319267 0.175716 -1.044045
v 1.504731 0.445047 -1.004174
vt 0.1376 0.5634
vt 0.0826 0.5067
vt 0.1529 0.4987
vt 0.1550 0.3441
vt 0.1556 0.4023
vt 0.0998 0.3877
vt 0.8962 0.2829
vt 0.7950 0.2490
vt 0.8707 0.1749
vt 0.9492 0.5877
vt 0.9057 0.6826
vt 0.9167 0.6045
vt 0.3692 0.0008
vt 0.4607 0.0635
vt 0.3368 0.0820
vt 0.4857 0.2550
vt 0.4816 0.3231
vt 0.4473 0.2762
vt 0.2154 0.5785
vt 0.2701 0.5239
vt 0.2768 0.5835
vt 0.2265 0.6947
vt 0.2665 0.6460
vt 0.2885 0.6956
vt 0.0600 0.6690
vt 0.1407 0.6292
vt 0.1496 0.6887
vt 0.0460 0.2771
vt 0.0420 0.4025
vt 0.0114 0.3834
vt 0.2261 0.1276
vt 0.1162 0.1497
vt 0.1339 0.0947
vt 0.3356 0.2678
vt 0.2062 0.2743
vt 0.2737 0.1876
vt 0.5205 0.6847
vt 0.4046 0.7132
vt 0.4229 0.6541
vt 0.5294 0.4791
vt 0.4398 0.5539
vt 0.4227 0.4592
vt 0.6723 0.7875
vt 0.7317 0.7072
vt 0.7441 0.8145
vt 0.0066 0.4823
vt 0.0909 0.4319
vt 0.0163 0.5363
vt 0.8571 0.0701
vt 0.8187 0.1375
vt 0.7861 0.0702
vt 0.7208 0.2512
vt 0.7587 0.1680
vt 0.8291 0.1826
vt 0.4081 0.3181
vt 0.4310 0.1768
vt 0.8347 0.4016
vt 0.7589 0.4881
vt 0.7478 0.3611
vt 0.8441 0.7006
vt 0.7665 0.6400
vt 0.8534 0.6288
vt 0.4911 0.1663
vt 0.5550 0.0575
vt 0.6424 0.1700
vt 0.6089 0.0722
vt 0.6612 0.0716
vt 0.6197 0.3211
vt 0.5564 0.2715
vt 0.6283 0.2559
vt 0.2237 0.5024
vt 0.2208 0.6358
vt 0.0583 0.5699
vt 0.1155 0.2999
vt 0.1657 0.1994
vt 0.2584 0.3215
vt 0.9344 0.1876
vt 0.9071 0.1336
vt 0.5396 0.5807
vt 0.6173 0.6784
vt 0.6226 0.5818
vt 0.6723 0.6611
vt 0.9396 0.5063
vt 0.8696 0.4909
vt 0.7441 0.8212
vt 0.7914 0.7117
vt 0.7916 0.8662
vt 1.0000 0.6065
vt 0.9441 0.6946
vt 0.3485 0.2255
vt 0.6723 0.5967
vt 0.6778 0.4598
vt 0.6749 0.6876
vt 0.5654 0.2000
vt 0.3877 0.8015
vt 0.3369 0.7859
vt 0.3845 0.7263
vt 0.5062 0.3510
vt 0.5127 0.3106
vt 0.5600 0.3103
vt 0.6100 0.3611
vt 0.3247 0.7229
vt 0.3209 0.6737
vt 0.2184 0.7526
vt 0.2786 0.7492
vt 0.1432 0.7525
vt 0.0693 0.7227
vt 0.8083 0.3611
vt 0.8545 0.3493
vt 0.0562 0.1459
vt 0.0000 0.2413
vt 0.0856 0.0653
vt 0.1163 0.0148
vt 0.1879 0.0352
vt 0.2730 0.0641
vt 0.3368 0.1404
vt 0.3165 0.0684
vt 0.3368 0.6749
vt 0.3401 0.6102
vt 0.3400 0.5363
vt 0.3368 0.4768
vt 0.3532 0.4197
vt 0.5177 0.4127
vt 0.4295 0.4003
vt 0.6042 0.4822
vt 0.5865 0.4235
vt 0.6465 0.4411
vt 0.0000 0.6084
vt 0.0537 0.6200
vt 0.7365 0.0923
vt 0.0123 0.6830
vt 0.9139 0.0770
vt 0.8552 0.1259
vt 0.4481 0.3543
vt 0.2912 0.4545
vt 0.6853 0.3887
vt 0.1301 0.4362
vt 0.8671 0.4173
vt 0.8217 0.4944
vt 0.4892 0.0000
vt 0.5639 0.0001
vt 0.5821 0.0074
vt 0.2079 0.0000
vt 0.6396 0.3929
vt 0.5795 0.3653
vt 0.6938 0.2371
vt 0.6940 0.1502
vt 0.6686 0.3119
vt 0.2063 0.3782
vt 0.4775 0.7263
vt 0.6838 0.7120
vt 0.0544 0.4025
vt 0.6940 0.2682
vt 0.7667 0.7072
vt 0.6629 0.5621
vt 0.7521 0.7072
vt 0.9999 0.7068
vt 0.3368 0.8336
vt 0.5595 0.3420
vt 0.6710 0.4914
vt 0.6941 0.1437
vt 0.0198 0.7426
vt 0.2322 0.4405
vt 0.2933 0.0252
vt 0.4772 0.3611
vn -0.0796 -0.9779 0.1933
vn -0.3110 -0.7884 0.5306
vn -0.3029 -0.9404 0.1544
vn -0.0711 0.9848 0.1584
vn -0.3408 0.7859 0.5159
vn -0.3430 0.7129 0.6117
vn 0.7746 0.5582 0.2971
vn 0.4023 0.4399 0.8029
vn 0.3900 0.2557 0.8845
vn -0.3367 0.1069 0.9355
vn -0.6012 0.3344 0.7257
vn -0.4539 0.8610 -0.2292
vn -0.5716 0.1441 -0.8077
vn -0.8850 0.3677 -0.2854
vn -0.1928 -0.6945 -0.6932
vn 0.0540 -0.8200 -0.5698
vn -0.2159 -0.5940 -0.7750
vn -0.0570 -0.9981 -0.0203
vn -0.0850 -0.9630 -0.2556
vn 0.0461 -0.8960 -0.4416
vn 0.0987 -0.9944 -0.0367
vn -0.1111 -0.9578 -0.2650
vn -0.0455 -0.9842 -0.1712
vn 0.1037 -0.8561 0.5063
vn -0.0700 -0.9853 0.1560
vn 0.1192 -0.9830 0.1395
vn 0.0425 0.9844 0.1706
vn -0.5304 0.3813 0.7571
vn 0.1152 0.3408 0.9330
vn 0.0154 0.9806 -0.1951
vn 0.1034 0.9946 -0.0072
vn 0.1487 0.9773 -0.1511
vn -0.0517 0.9983 -0.0276
vn -0.0381 0.9913 -0.1258
vn 0.9480 0.1831 0.2604
vn 0.4953 -0.5645 0.6603
vn 0.9208 -0.3592 0.1522
vn 0.9820 -0.1864 0.0315
vn 0.9813 -0.1899 0.0309
vn 0.9181 -0.3523 -0.1816
vn 0.6265 0.7776 0.0523
vn 0.8902 0.4374 0.1271
vn 0.9953 0.0411 0.0874
vn -0.4154 -0.3022 0.8580
vn -0.7569 -0.5304 0.3818
vn -0.2406 -0.2975 0.9239
vn 0.1145 -0.4030 0.9080
vn 0.0598 -0.1403 0.9883
vn -0.1155 -0.0996 0.9883
vn -0.0262 -0.5068 0.8617
vn 0.0609 -0.1822 0.9814
vn -0.3634 -0.7434 -0.5615
vn -0.5324 -0.2732 -0.8011
vn -0.7982 -0.5954 0.0912
vn -0.9937 -0.0037 0.1122
vn -0.6544 -0.7561 -0.0059
vn -0.4112 0.8941 0.1772
vn -0.8157 0.5698 0.0997
vn -0.7978 0.5545 0.2365
vn -0.4000 -0.4217 -0.8137
vn -0.3760 -0.1942 -0.9060
vn 0.2356 -0.4800 -0.8450
vn 0.1737 0.0099 -0.9847
vn 0.4465 0.1931 -0.8737
vn -0.1024 -0.8307 -0.5471
vn -0.1113 -0.8515 -0.5123
vn 0.0222 -0.6169 -0.7867
vn -0.1681 -0.9857 -0.0124
vn -0.0293 -0.9964 -0.0791
vn -0.1957 -0.8383 0.5088
vn -0.0556 0.9950 0.0828
vn -0.0124 0.9984 -0.0552
vn -0.3327 0.9429 0.0140
vn 0.7374 -0.0424 0.6740
vn 0.9736 0.2216 0.0545
vn 0.3573 0.9043 0.2334
vn -0.9140 -0.0170 0.4052
vn -0.8943 -0.2134 -0.3932
vn -0.1291 -0.5752 -0.8077
vn 0.0138 -0.7619 -0.6475
vn -0.1571 -0.9331 -0.3235
vn 0.2340 -0.7933 -0.5620
vn 0.6102 -0.7907 0.0491
vn 0.5111 -0.8572 -0.0625
vn 0.5176 -0.8492 0.1045
vn 0.3116 -0.8578 0.4087
vn 0.5473 0.8266 0.1313
vn 0.6354 0.6781 -0.3692
vn 0.2690 0.8056 -0.5279
vn 0.2565 0.8650 -0.4312
vn -0.3230 0.7285 -0.6040
vn -0.0907 0.5808 -0.8090
vn 0.7469 -0.2194 -0.6276
vn 0.4762 -0.4125 -0.7765
vn 0.8595 -0.0056 -0.5111
vn -0.1175 -0.8578 0.5004
vn -0.0014 -0.0779 0.9969
vn -0.9983 0.0552 0.0163
s 1
f 1/1/1 3/2/2 4/3/3
f 5/4/4 7/5/5 8/6/6
f 9/7/7 11/8/8 12/9/9
f 13/10/10 7/11/5 14/12/11
f 16/13/12 18/14/13 15/15/14
f 19/16/15 21/17/16 22/18/17
f 24/19/18 26/20/19 23/21/20
f 28/22/21 30/23/22 27/24/23
f 32/25/24 34/26/25 31/27/26
f 35/28/27 37/29/28 38/30/29
f 40/31/30 42/32/31 39/33/32
f 16/34/12 45/35/33 43/36/34
f 47/37/35 49/38/36 46/39/37
f 51/40/38 53/41/39 50/42/40
f 55/43/41 57/44/42 54/45/43
f 59/46/44 61/47/45 58/48/46
f 62/49/47 64/50/48 65/51/49
f 38/52/29 67/53/50 66/54/51
f 68/55/52 70/56/53 22/18/17
f 71/57/54 73/58/55 74/59/56
f 6/60/57 76/61/58 75/62/59
f 78/63/60 18/14/13 77/64/61
f 80/65/62 82/66/63 79/67/64
f 84/68/65 86/69/66 83/70/67
f 24/19/18 4/3/3 25/71/68
f 34/26/25 24/19/18 29/72/69
f 34/26/25 2/73/70 1/1/1
f 36/74/71 8/6/6 37/29/28
f 45/35/33 36/74/71 41/75/72
f 44/76/73 5/4/4 45/35/33
f 47/77/35 12/9/9 48/78/74
f 52/79/75 9/80/7 47/37/35
f 57/81/42 10/82/76 9/80/7
f 59/83/44 14/12/11 60/84/77
f 67/85/50 59/86/44 64/87/48
f 67/88/50 8/89/6 13/10/10
f 15/15/14 70/56/53 69/90/78
f 73/58/55 15/91/14 69/92/78
f 76/61/58 16/93/12 15/91/14
f 19/16/15 70/56/53 78/63/60
f 81/94/79 19/16/15 78/63/60
f 86/95/66 20/96/80 19/97/15
f 23/98/20 21/17/16 20/99/80
f 85/100/81 23/98/20 20/99/80
f 29/72/69 23/21/20 30/23/22
f 27/101/23 85/100/81 84/68/65
f 87/102/82 27/24/23 84/103/65
f 89/104/83 27/24/23 88/105/84
f 31/27/26 29/72/69 28/22/21
f 90/106/85 28/22/21 89/104/83
f 91/107/86 31/27/26 90/106/85
f 35/108/27 11/8/8 10/109/76
f 56/110/87 35/28/27 10/111/76
f 41/75/72 35/28/27 42/32/31
f 55/112/41 42/32/31 56/110/87
f 92/113/88 39/33/32 55/112/41
f 93/114/89 40/31/30 39/33/32
f 43/36/34 41/75/72 40/31/30
f 94/115/90 43/36/34 40/31/30
f 17/116/91 43/36/34 95/117/92
f 46/39/37 91/118/86 90/119/85
f 53/41/39 90/119/85 89/120/83
f 52/79/75 46/39/37 53/41/39
f 88/121/84 53/41/39 89/120/83
f 87/122/82 50/42/40 88/121/84
f 97/123/93 50/42/40 96/124/94
f 54/125/43 52/79/75 51/40/38
f 98/126/95 51/40/38 97/123/93
f 92/127/88 54/125/43 98/126/95
f 58/48/46 3/2/2 2/73/70
f 65/128/49 2/73/70 33/129/96
f 64/50/48 58/130/46 65/51/49
f 32/25/24 65/128/49 33/129/96
f 91/107/86 62/131/47 32/25/24
f 49/132/36 63/133/97 62/49/47
f 66/54/51 64/50/48 63/133/97
f 12/9/9 63/133/97 48/78/74
f 11/8/8 66/54/51 12/9/9
f 26/134/19 22/18/17 21/17/16
f 25/71/68 68/135/52 26/20/19
f 74/59/56 69/92/78 68/136/52
f 71/137/54 25/71/68 4/3/3
f 61/47/45 4/3/3 3/2/2
f 61/138/45 72/139/98 71/57/54
f 72/139/98 76/61/58 73/58/55
f 60/84/77 75/62/59 72/139/98
f 7/11/5 75/62/59 14/12/11
f 77/64/61 17/140/91 95/141/92
f 82/66/63 95/141/92 94/142/90
f 81/94/79 77/64/61 82/66/63
f 79/143/64 94/115/90 93/114/89
f 98/126/95 93/144/89 92/127/88
f 97/123/93 79/145/64 98/126/95
f 83/70/67 81/94/79 80/65/62
f 96/146/94 80/65/62 97/147/93
f 87/148/82 83/70/67 96/146/94
f 1/1/1 2/73/70 3/2/2
f 5/4/4 6/149/57 7/5/5
f 9/7/7 10/109/76 11/8/8
f 13/10/10 8/89/6 7/11/5
f 16/13/12 17/140/91 18/14/13
f 19/16/15 20/99/80 21/17/16
f 24/19/18 25/71/68 26/20/19
f 28/22/21 29/72/69 30/23/22
f 32/25/24 33/129/96 34/26/25
f 35/28/27 36/74/71 37/29/28
f 40/31/30 41/75/72 42/32/31
f 16/34/12 44/76/73 45/35/33
f 47/37/35 48/150/74 49/38/36
f 51/40/38 52/79/75 53/41/39
f 55/43/41 56/151/87 57/44/42
f 59/46/44 60/152/77 61/47/45
f 62/49/47 63/133/97 64/50/48
f 38/52/29 37/153/28 67/53/50
f 68/55/52 69/90/78 70/56/53
f 71/57/54 72/139/98 73/58/55
f 6/60/57 44/154/73 76/61/58
f 78/63/60 70/56/53 18/14/13
f 80/65/62 81/94/79 82/66/63
f 84/68/65 85/100/81 86/69/66
f 24/19/18 1/1/1 4/3/3
f 34/26/25 1/1/1 24/19/18
f 34/26/25 33/129/96 2/73/70
f 36/74/71 5/4/4 8/6/6
f 45/35/33 5/4/4 36/74/71
f 44/76/73 6/149/57 5/4/4
f 47/77/35 9/7/7 12/9/9
f 52/79/75 57/81/42 9/80/7
f 57/81/42 56/155/87 10/82/76
f 59/83/44 13/10/10 14/12/11
f 67/85/50 13/156/10 59/86/44
f 67/88/50 37/157/28 8/89/6
f 15/15/14 18/14/13 70/56/53
f 73/58/55 76/61/58 15/91/14
f 76/61/58 44/154/73 16/93/12
f 19/16/15 22/18/17 70/56/53
f 81/94/79 86/69/66 19/16/15
f 86/95/66 85/158/81 20/96/80
f 23/98/20 26/134/19 21/17/16
f 85/100/81 30/159/22 23/98/20
f 29/72/69 24/19/18 23/21/20
f 27/101/23 30/159/22 85/100/81
f 87/102/82 88/105/84 27/24/23
f 89/104/83 28/22/21 27/24/23
f 31/27/26 34/26/25 29/72/69
f 90/106/85 31/27/26 28/22/21
f 91/107/86 32/25/24 31/27/26
f 35/108/27 38/52/29 11/8/8
f 56/110/87 42/32/31 35/28/27
f 41/75/72 36/74/71 35/28/27
f 55/112/41 39/33/32 42/32/31
f 92/113/88 93/114/89 39/33/32
f 93/114/89 94/115/90 40/31/30
f 43/36/34 45/35/33 41/75/72
f 94/115/90 95/117/92 43/36/34
f 17/116/91 16/34/12 43/36/34
f 46/39/37 49/38/36 91/118/86
f 53/41/39 46/39/37 90/119/85
f 52/79/75 47/37/35 46/39/37
f 88/121/84 50/42/40 53/41/39
f 87/122/82 96/124/94 50/42/40
f 97/123/93 51/40/38 50/42/40
f 54/125/43 57/81/42 52/79/75
f 98/126/95 54/125/43 51/40/38
f 92/127/88 55/160/41 54/125/43
f 58/48/46 61/47/45 3/2/2
f 65/128/49 58/48/46 2/73/70
f 64/50/48 59/161/44 58/130/46
f 32/25/24 62/131/47 65/128/49
f 91/107/86 49/162/36 62/131/47
f 49/132/36 48/78/74 63/133/97
f 66/54/51 67/53/50 64/50/48
f 12/9/9 66/54/51 63/133/97
f 11/8/8 38/52/29 66/54/51
f 26/134/19 68/55/52 22/18/17
f 25/71/68 74/163/56 68/135/52
f 74/59/56 73/58/55 69/92/78
f 71/137/54 74/163/56 25/71/68
f 61/47/45 71/137/54 4/3/3
f 61/138/45 60/84/77 72/139/98
f 72/139/98 75/62/59 76/61/58
f 60/84/77 14/12/11 75/62/59
f 7/11/5 6/60/57 75/62/59
f 77/64/61 18/14/13 17/140/91
f 82/66/63 77/64/61 95/141/92
f 81/94/79 78/63/60 77/64/61
f 79/143/64 82/164/63 94/115/90
f 98/126/95 79/145/64 93/144/89
f 97/123/93 80/165/62 79/145/64
f 83/70/67 86/69/66 81/94/79
f 96/146/94 83/70/67 80/65/62
f 87/148/82 84/68/65 83/70/67
